<svg xmlns="http://www.w3.org/2000/svg" viewBox="0 0 358 359" width="358" height="359">
	<defs>
		<clipPath clipPathUnits="userSpaceOnUse" id="cp1">
			<path d="M154.41 0.66L354.66 0.66L354.66 56.55L154.41 56.55L154.41 0.66Z" />
		</clipPath>
	</defs>
	<style>
		tspan { white-space:pre }
		.shp0 { fill: #ffffff } 
		.shp1 { fill: #000000 } 
	</style>
	<g id="Symbols">
		<g id="imago_white">
			<g id="Group 22">
				<path id="Fill 1" class="shp0" d="M319.86 297.15C318.3 296.8 317.02 296.54 315.77 296.22C288.47 289.39 262.5 279.27 238.31 264.8C226.72 257.86 215.89 249.9 206.06 240.61C201.84 236.62 197.9 232.37 194.11 227.97C193.38 227.12 193.21 226.43 193.61 225.34C195.94 219.06 196.9 212.56 196.62 205.87C196.08 193.06 191.43 181.93 182.79 172.5C175.41 164.44 166.3 159.26 155.64 156.78C155.33 156.71 155.02 156.62 154.6 156.51L154.6 138.42C154.97 138.47 155.34 138.48 155.68 138.59C172.85 144.07 189.76 150.24 206.02 158.06C221.41 165.46 236.06 174.06 249.33 184.89C259.64 193.32 268.64 203.01 276.82 213.47C295.79 237.72 309.75 264.62 318.96 293.98C319.25 294.91 319.49 295.86 319.86 297.15" />
				<path id="Fill 3" class="shp0" d="M134.27 237.02C119.06 231.3 111.03 216.21 114.24 201.3C117.37 186.81 129.92 176.71 144.65 176.63C159.23 176.55 171.86 186.52 175.23 200.7C178.68 215.2 171.11 231.13 155.15 237.09L155.15 238.62C155.15 249.34 155.17 260.06 155.13 270.78C155.12 271.97 155.51 272.63 156.53 273.23C161.08 275.92 165.27 279.07 168.83 283C169.71 283.97 170.54 284.99 171.31 286.05C175.85 292.22 177.17 298.96 175 306.38C173.17 312.61 170.43 318.43 167.36 324.12C163.24 331.78 158.53 339.09 153.6 346.26C151.02 350 148.42 353.72 145.83 357.45C145.53 357.9 145.19 358.32 144.83 358.8C144.61 358.57 144.44 358.43 144.33 358.26C138.11 349.26 131.69 340.4 126.12 330.97C122.36 324.6 118.83 318.13 116.2 311.2C115.07 308.23 114.12 305.21 113.73 302.04C113.01 296.33 114.66 291.24 117.9 286.58C120.8 282.39 124.53 279.03 128.67 276.1C130.23 274.99 131.85 273.97 133.48 272.97C134.1 272.59 134.42 272.18 134.42 271.41C134.39 260.09 134.39 248.77 134.38 237.45C134.38 237.35 134.33 237.24 134.27 237.02" />
				<g id="Group 7">
					<path id="Clip 6" class="shp1" d="M154.41 0.66L354.66 0.66L354.66 56.55L154.41 56.55L154.41 0.66Z" />
					<g id="Mask by Clip 6" clip-path="url(#cp1)">
						<path id="Fill 5" class="shp0" d="M357.66 32.82C356.39 33.58 355.47 34.16 354.52 34.69C341.39 41.9 327.64 47.68 313.42 52.37C309.11 53.79 304.73 54.99 300.39 56.35C299.28 56.69 298.34 56.6 297.26 56.1C285.74 50.71 273.83 46.36 261.55 43.04C254.51 41.14 247.35 39.81 240.12 38.96C231.85 38 223.58 37.08 215.29 36.48C202.12 35.51 188.92 35.18 175.73 36.26C170.28 36.71 164.84 37.35 159.4 37.9C158.86 37.96 158.31 37.98 157.79 38.02C157.41 36.82 157.25 9.08 157.61 5.73C185.58 0.81 213.77 -0.53 242.11 1.7C282.41 4.88 320.88 14.9 357.66 32.82" />
					</g>
				</g>
				<path id="Fill 8" class="shp0" d="M154.55 72.72L154.55 56.4C154.98 56.3 155.43 56.15 155.89 56.08C170.67 53.86 185.53 53.21 200.45 53.82C214.63 54.41 228.75 55.58 242.74 58.06C252.31 59.75 261.55 62.64 270.61 66.09C293.42 74.78 314.14 87.09 333.1 102.38C337.95 106.29 342.49 110.58 347.17 114.71C347.61 115.1 348 115.54 348.64 116.19C347.54 116.53 346.69 116.83 345.83 117.06C339.1 118.84 332.28 120.15 325.41 121.21C315.71 122.7 305.96 123.57 296.15 123.94C294.76 123.99 293.7 123.63 292.6 122.72C281.98 113.96 270.73 106.11 258.49 99.75C246.35 93.45 233.6 88.71 220.49 84.88C207.23 81.01 193.77 78.03 180.12 76.01C172.27 74.85 164.38 74 156.51 73C155.91 72.93 155.32 72.83 154.55 72.72" />
				<path id="Fill 10" class="shp0" d="M154.58 116.48L154.58 94.16C155.94 94.28 157.18 94.37 158.42 94.5C175.53 96.4 192.46 99.24 209.11 103.65C222.63 107.23 235.82 111.73 248.33 118.05C259.23 123.56 269.31 130.31 278.82 137.93C299.94 154.85 317.64 174.84 332.04 197.74C332.47 198.42 332.86 199.12 333.39 200.01C332.89 200.08 332.6 200.16 332.31 200.15C328.32 199.99 324.31 199.93 320.33 199.61C311.76 198.94 303.24 197.76 294.8 196.13C292.97 195.78 290.92 195.79 289.39 194.92C287.86 194.05 286.84 192.28 285.62 190.89C265.37 167.74 241.52 149.26 213.88 135.69C196.69 127.25 178.68 121.24 159.9 117.48C158.14 117.13 156.37 116.81 154.58 116.48" />
				<path id="Fill 12" class="shp0" d="M55.01 40.82C79.56 27.07 105.61 17.1 132.85 10.48C133.03 10.57 133.09 10.58 133.13 10.62C133.16 10.65 133.2 10.71 133.2 10.75C133.24 46.07 133.27 81.38 133.29 116.69C133.29 116.95 133.25 117.2 133.24 117.41C133.1 117.48 133.05 117.52 133.01 117.53C132.96 117.53 132.89 117.51 132.85 117.48C132.64 117.31 132.41 117.15 132.22 116.96C106.54 91.74 80.86 66.51 55.18 41.28C55.11 41.22 55.11 41.09 55.01 40.82" />
				<path id="Fill 14" class="shp0" d="M71.46 84.44C92.21 105.44 112.72 126.19 133.19 146.91C133.14 147.07 133.13 147.13 133.1 147.17C133.07 147.21 133.03 147.26 132.99 147.26C112.89 147.29 92.8 147.32 72.7 147.34C72.33 147.34 71.95 147.28 71.46 147.24L71.46 84.44Z" />
				<path id="Fill 16" class="shp0" d="M5.07 104.04L52.4 104.04L52.4 153.58C52.39 153.59 52.34 153.62 52.29 153.64C52.24 153.65 52.17 153.67 52.14 153.64C36.59 137.33 21.04 121.01 5.49 104.69C5.35 104.55 5.27 104.35 5.07 104.04" />
				<path id="Fill 18" class="shp0" d="M0 82.77C11.53 71.3 24.11 61.1 37.53 52.05C47.89 62.46 58.14 72.75 68.52 83.18C68.59 82.9 68.58 82.95 68.56 83C68.54 83.04 68.49 83.11 68.46 83.11C46.18 83.13 23.9 83.15 1.62 83.16C1.14 83.16 0.66 83.16 0.18 83.16C0.12 83.03 0.06 82.9 0 82.77" />
				<path id="Fill 20" class="shp0" d="M71.72 165.43L114.03 165.43C109.34 169.15 105.05 173.21 101.52 178.02C97.95 182.86 95.52 188.26 93.45 194C93.02 193.61 92.65 193.31 92.31 192.97C85.78 186.43 79.26 179.88 72.7 173.37C71.97 172.65 71.67 171.92 71.71 170.92C71.77 169.13 71.72 167.34 71.72 165.43" />
			</g>
		</g>
	</g>
</svg>