<svg xmlns="http://www.w3.org/2000/svg" viewBox="0 0 14 14" width="14" height="14">
	<defs>
		<clipPath clipPathUnits="userSpaceOnUse" id="cp1">
			<path d="M-995 -16L285 -16L285 784L-995 784Z" />
		</clipPath>
	</defs>
	<style>
		tspan { white-space:pre }
		.shp0 { fill: #d8d8d8 } 
	</style>
	<g id="2. Labels" clip-path="url(#cp1)">
		<g id="MENU">
			<g id="Group">
				<path id="Rectangle" class="shp0" d="M2.19 0.65L2.25 0.65C3.06 0.65 3.72 1.3 3.72 2.11L3.72 2.11C3.72 2.93 3.06 3.58 2.25 3.58L2.19 3.58C1.38 3.58 0.72 2.93 0.72 2.11L0.72 2.11C0.72 1.3 1.38 0.65 2.19 0.65Z" />
				<path id="Rectangle Copy 3" class="shp0" d="M7.19 0.65L7.25 0.65C8.06 0.65 8.72 1.3 8.72 2.11L8.72 2.11C8.72 2.93 8.06 3.58 7.25 3.58L7.19 3.58C6.37 3.58 5.72 2.93 5.72 2.11L5.72 2.11C5.72 1.3 6.37 0.65 7.19 0.65Z" />
				<path id="Rectangle Copy 6" class="shp0" d="M12.18 0.65L12.24 0.65C13.06 0.65 13.71 1.3 13.71 2.11L13.71 2.11C13.71 2.93 13.06 3.58 12.24 3.58L12.18 3.58C11.37 3.58 10.71 2.93 10.71 2.11L10.71 2.11C10.71 1.3 11.37 0.65 12.18 0.65Z" />
				<path id="Rectangle Copy" class="shp0" d="M2.19 5.54L2.25 5.54C3.06 5.54 3.72 6.2 3.72 7.01L3.72 7.01C3.72 7.82 3.06 8.48 2.25 8.48L2.19 8.48C1.38 8.48 0.72 7.82 0.72 7.01L0.72 7.01C0.72 6.2 1.38 5.54 2.19 5.54Z" />
				<path id="Rectangle Copy 4" class="shp0" d="M7.19 5.54L7.25 5.54C8.06 5.54 8.72 6.2 8.72 7.01L8.72 7.01C8.72 7.82 8.06 8.48 7.25 8.48L7.19 8.48C6.37 8.48 5.72 7.82 5.72 7.01L5.72 7.01C5.72 6.2 6.37 5.54 7.19 5.54Z" />
				<path id="Rectangle Copy 7" class="shp0" d="M12.18 5.54L12.24 5.54C13.06 5.54 13.71 6.2 13.71 7.01L13.71 7.01C13.71 7.82 13.06 8.48 12.24 8.48L12.18 8.48C11.37 8.48 10.71 7.82 10.71 7.01L10.71 7.01C10.71 6.2 11.37 5.54 12.18 5.54Z" />
				<path id="Rectangle Copy 2" class="shp0" d="M2.19 10.44L2.25 10.44C3.06 10.44 3.72 11.09 3.72 11.91L3.72 11.91C3.72 12.72 3.06 13.37 2.25 13.37L2.19 13.37C1.38 13.37 0.72 12.72 0.72 11.91L0.72 11.91C0.72 11.09 1.38 10.44 2.19 10.44Z" />
				<path id="Rectangle Copy 5" class="shp0" d="M7.19 10.44L7.25 10.44C8.06 10.44 8.72 11.09 8.72 11.91L8.72 11.91C8.72 12.72 8.06 13.37 7.25 13.37L7.19 13.37C6.37 13.37 5.72 12.72 5.72 11.91L5.72 11.91C5.72 11.09 6.37 10.44 7.19 10.44Z" />
				<path id="Rectangle Copy 8" class="shp0" d="M12.18 10.44L12.24 10.44C13.06 10.44 13.71 11.09 13.71 11.91L13.71 11.91C13.71 12.72 13.06 13.37 12.24 13.37L12.18 13.37C11.37 13.37 10.71 12.72 10.71 11.91L10.71 11.91C10.71 11.09 11.37 10.44 12.18 10.44Z" />
			</g>
		</g>
	</g>
</svg>