<svg xmlns="http://www.w3.org/2000/svg" viewBox="0 0 15 15" width="15" height="15">
	<defs>
		<clipPath clipPathUnits="userSpaceOnUse" id="cp1">
			<path d="M-483 -15L797 -15L797 785L-483 785Z" />
		</clipPath>
	</defs>
	<style>
		tspan { white-space:pre }
		.shp0 { fill: none;stroke: #d8d6d6;stroke-width: 0.989 } 
	</style>
	<g id="2. Labels" clip-path="url(#cp1)">
		<g id="MENU">
			<g id="icons" style="opacity: 0.808">
				<g id="home icon" style="opacity: 0.6">
					<path id="Stroke 2" class="shp0" d="M1.62 6.54L1.62 13.27C1.62 13.34 1.67 13.4 1.74 13.4L6.11 13.4C6.18 13.4 6.23 13.34 6.23 13.27L6.23 8.96C6.23 8.89 6.28 8.84 6.34 8.84L8.73 8.84C8.79 8.84 8.84 8.89 8.84 8.96L8.84 13.27C8.84 13.34 8.9 13.4 8.96 13.4L13.49 13.4C13.56 13.4 13.61 13.34 13.61 13.27L13.61 6.54C13.61 6.51 13.59 6.47 13.57 6.45L7.69 1.67C7.65 1.64 7.59 1.64 7.54 1.67L1.67 6.45C1.64 6.47 1.62 6.51 1.62 6.54Z" />
				</g>
			</g>
		</g>
	</g>
</svg>