<svg xmlns="http://www.w3.org/2000/svg" viewBox="0 0 27 27" width="27" height="27">
	<defs>
		<clipPath clipPathUnits="userSpaceOnUse" id="cp1">
			<path d="M-149 -10L1131 -10L1131 790L-149 790Z" />
		</clipPath>
		<clipPath clipPathUnits="userSpaceOnUse" id="cp2">
			<path d="M12.18 0.82L26.84 0.82L26.84 4.78L12.18 4.78L12.18 0.82Z" />
		</clipPath>
	</defs>
	<style>
		tspan { white-space:pre }
		.shp0 { fill: #ffffff } 
		.shp1 { fill: #000000 } 
	</style>
	<g id="2. Labels" clip-path="url(#cp1)">
		<g id="MENU">
			<g id="imago" style="opacity: 0.82">
				<g id="Group 22">
					<path id="Fill 1" class="shp0" d="M24.29 21.84C24.18 21.82 24.08 21.8 23.99 21.78C21.99 21.29 20.09 20.58 18.32 19.55C17.47 19.06 16.68 18.49 15.96 17.83C15.65 17.55 15.37 17.25 15.09 16.94C15.03 16.88 15.02 16.83 15.05 16.75C15.22 16.31 15.29 15.84 15.27 15.37C15.23 14.46 14.89 13.67 14.26 13C13.72 12.43 13.05 12.06 12.27 11.89C12.25 11.88 12.23 11.88 12.2 11.87L12.2 10.59C12.22 10.59 12.25 10.59 12.28 10.6C13.53 10.99 14.77 11.42 15.96 11.98C17.09 12.5 18.16 13.11 19.13 13.88C19.88 14.48 20.54 15.17 21.14 15.91C22.53 17.63 23.55 19.54 24.23 21.62C24.25 21.68 24.26 21.75 24.29 21.84" />
					<path id="Fill 3" class="shp0" d="M10.71 17.58C9.6 17.17 9.01 16.1 9.24 15.05C9.47 14.02 10.39 13.3 11.47 13.3C12.54 13.29 13.46 14 13.71 15C13.96 16.03 13.4 17.16 12.24 17.58L12.24 17.69C12.24 18.45 12.24 19.21 12.24 19.97C12.23 20.06 12.26 20.1 12.34 20.15C12.67 20.34 12.98 20.56 13.24 20.84C13.3 20.91 13.36 20.98 13.42 21.06C13.75 21.49 13.85 21.97 13.69 22.5C13.56 22.94 13.35 23.35 13.13 23.76C12.83 24.3 12.48 24.82 12.12 25.33C11.93 25.59 11.74 25.86 11.56 26.12C11.53 26.15 11.51 26.18 11.48 26.22C11.47 26.2 11.45 26.19 11.45 26.18C10.99 25.54 10.52 24.91 10.11 24.24C9.84 23.79 9.58 23.33 9.39 22.84C9.3 22.63 9.23 22.41 9.21 22.19C9.15 21.78 9.27 21.42 9.51 21.09C9.72 20.8 10 20.56 10.3 20.35C10.41 20.27 10.53 20.2 10.65 20.13C10.7 20.1 10.72 20.07 10.72 20.02C10.72 19.22 10.72 18.41 10.72 17.61C10.72 17.6 10.71 17.59 10.71 17.58" />
					<g id="Group 7">
						<path id="Clip 6" class="shp1" d="M12.18 0.82L26.84 0.82L26.84 4.78L12.18 4.78L12.18 0.82Z" />
						<g id="Mask by Clip 6" clip-path="url(#cp2)">
							<path id="Fill 5" class="shp0" d="M26.84 3.1C26.74 3.15 26.68 3.19 26.61 3.23C25.65 3.74 24.64 4.15 23.6 4.48C23.28 4.59 22.96 4.67 22.65 4.77C22.57 4.79 22.5 4.78 22.42 4.75C21.57 4.37 20.7 4.06 19.8 3.82C19.29 3.69 18.76 3.59 18.24 3.53C17.63 3.47 17.03 3.4 16.42 3.36C15.45 3.29 14.49 3.27 13.52 3.34C13.12 3.37 12.73 3.42 12.33 3.46C12.29 3.46 12.25 3.46 12.21 3.47C12.18 3.38 12.17 1.41 12.2 1.18C14.24 0.83 16.31 0.73 18.38 0.89C21.33 1.12 24.15 1.83 26.84 3.1" />
						</g>
					</g>
					<path id="Fill 8" class="shp0" d="M12.19 5.93L12.19 4.77C12.22 4.76 12.26 4.75 12.29 4.75C13.37 4.59 14.46 4.54 15.55 4.59C16.59 4.63 17.62 4.71 18.65 4.89C19.35 5.01 20.02 5.21 20.69 5.46C22.36 6.07 23.87 6.95 25.26 8.03C25.61 8.31 25.95 8.61 26.29 8.91C26.32 8.93 26.35 8.96 26.4 9.01C26.32 9.03 26.25 9.06 26.19 9.07C25.7 9.2 25.2 9.29 24.7 9.37C23.99 9.47 23.27 9.53 22.56 9.56C22.45 9.56 22.38 9.54 22.3 9.47C21.52 8.85 20.7 8.3 19.8 7.84C18.91 7.4 17.98 7.06 17.02 6.79C16.05 6.52 15.06 6.3 14.06 6.16C13.49 6.08 12.91 6.02 12.34 5.95C12.29 5.94 12.25 5.94 12.19 5.93" />
					<path id="Fill 10" class="shp0" d="M12.2 9.03L12.2 7.45C12.29 7.46 12.39 7.46 12.48 7.47C13.73 7.61 14.97 7.81 16.19 8.12C17.18 8.37 18.14 8.69 19.06 9.14C19.85 9.53 20.59 10.01 21.29 10.55C22.83 11.75 24.13 13.17 25.18 14.79C25.21 14.84 25.24 14.89 25.28 14.95C25.24 14.96 25.22 14.97 25.2 14.96C24.91 14.95 24.62 14.95 24.33 14.93C23.7 14.88 23.08 14.79 22.46 14.68C22.32 14.65 22.17 14.66 22.06 14.59C21.95 14.53 21.87 14.41 21.78 14.31C20.3 12.67 18.56 11.36 16.54 10.39C15.28 9.79 13.96 9.37 12.58 9.1C12.46 9.08 12.33 9.05 12.2 9.03" />
					<path id="Fill 12" class="shp0" d="M4.98 3.67C6.78 2.69 8.68 1.98 10.68 1.51C10.69 1.52 10.7 1.52 10.7 1.52C10.7 1.53 10.7 1.53 10.7 1.53C10.71 4.04 10.71 6.54 10.71 9.05C10.71 9.06 10.71 9.08 10.71 9.1C10.7 9.1 10.69 9.1 10.69 9.11C10.69 9.11 10.68 9.1 10.68 9.1C10.66 9.09 10.65 9.08 10.63 9.07C8.75 7.28 6.87 5.49 4.99 3.7C4.99 3.69 4.99 3.68 4.98 3.67" />
					<path id="Fill 14" class="shp0" d="M6.11 6.76C7.63 8.25 9.13 9.72 10.63 11.19C10.63 11.2 10.63 11.2 10.62 11.21C10.62 11.21 10.62 11.21 10.62 11.21C9.14 11.22 7.67 11.22 6.2 11.22C6.18 11.22 6.15 11.22 6.11 11.21L6.11 6.76Z" />
					<path id="Fill 16" class="shp0" d="M1.25 8.15L4.72 8.15L4.72 11.66C4.72 11.66 4.71 11.66 4.71 11.67C4.71 11.67 4.7 11.67 4.7 11.67C3.56 10.51 2.42 9.35 1.28 8.19C1.27 8.18 1.27 8.17 1.25 8.15" />
					<path id="Fill 18" class="shp0" d="M0.88 6.64C1.73 5.83 2.65 5.1 3.63 4.46C4.39 5.2 5.14 5.93 5.9 6.67C5.9 6.65 5.9 6.65 5.9 6.66C5.9 6.66 5.9 6.66 5.89 6.66C4.26 6.67 2.63 6.67 1 6.67C0.97 6.67 0.93 6.67 0.9 6.67C0.89 6.66 0.89 6.65 0.88 6.64" />
					<path id="Fill 20" class="shp0" d="M6.13 12.5L9.23 12.5C8.88 12.77 8.57 13.05 8.31 13.4C8.05 13.74 7.87 14.12 7.72 14.53C7.69 14.5 7.66 14.48 7.64 14.46C7.16 13.99 6.68 13.53 6.2 13.07C6.15 13.01 6.13 12.96 6.13 12.89C6.14 12.76 6.13 12.64 6.13 12.5" />
				</g>
			</g>
		</g>
	</g>
</svg>